inDegrees=no
num_controls=7
num_derivatives=13
num_iterations=120
num_multipliers=7
num_parameters=0
num_slacks=7
num_states=26
objective=4.246976
objective_accelerations=0.627103
objective_balance=0.057933
objective_effort=0.635405
objective_height=2.873003
objective_ligament=0.053532
solver_duration=1177.597555
status=Solve_Succeeded
success=true
DataType=double
version=3
OpenSimVersion=4.4-2022-07-23-0e9fedc
endheader
time	/jointset/ground_pelvis/pelvis_tilt/value	/jointset/ground_pelvis/pelvis_tx/value	/jointset/ground_pelvis/pelvis_ty/value	/jointset/hip_l/hip_flexion_l/value	/jointset/hip_l/hip_adduction_l/value	/jointset/hip_l/hip_rotation_l/value	/jointset/back/lumbar_extension/value	/jointset/patellofemoral_l/patellar_flexion_l/value	/jointset/knee_l/knee_flexion_l/value	/jointset/knee_l/knee_adduction_l/value	/jointset/knee_l/knee_rotation_l/value	/jointset/ankle_l/ankle_angle_l/value	/jointset/subtalar_l/subtalar_angle_l/value	/jointset/ground_pelvis/pelvis_tilt/speed	/jointset/ground_pelvis/pelvis_tx/speed	/jointset/ground_pelvis/pelvis_ty/speed	/jointset/hip_l/hip_flexion_l/speed	/jointset/hip_l/hip_adduction_l/speed	/jointset/hip_l/hip_rotation_l/speed	/jointset/back/lumbar_extension/speed	/jointset/patellofemoral_l/patellar_flexion_l/speed	/jointset/knee_l/knee_flexion_l/speed	/jointset/knee_l/knee_adduction_l/speed	/jointset/knee_l/knee_rotation_l/speed	/jointset/ankle_l/ankle_angle_l/speed	/jointset/subtalar_l/subtalar_angle_l/speed	/forceset/tau_hip_flexion_l	/forceset/tau_hip_adduction_l	/forceset/tau_hip_rotation_l	/forceset/tau_knee_flexion_l	/forceset/tau_ankle_angle_l	/forceset/tau_subtalar_angle_l	/forceset/tau_lumbar_extension	lambda_cid13_p0	lambda_cid13_p1	lambda_cid13_p2	lambda_cid13_p3	lambda_cid13_p4	lambda_cid13_p5	lambda_cid14_p0	/jointset/ground_pelvis/pelvis_tilt/accel	/jointset/ground_pelvis/pelvis_tx/accel	/jointset/ground_pelvis/pelvis_ty/accel	/jointset/hip_l/hip_flexion_l/accel	/jointset/hip_l/hip_adduction_l/accel	/jointset/hip_l/hip_rotation_l/accel	/jointset/back/lumbar_extension/accel	/jointset/patellofemoral_l/patellar_flexion_l/accel	/jointset/knee_l/knee_flexion_l/accel	/jointset/knee_l/knee_adduction_l/accel	/jointset/knee_l/knee_rotation_l/accel	/jointset/ankle_l/ankle_angle_l/accel	/jointset/subtalar_l/subtalar_angle_l/accel	gamma_cid13_p0	gamma_cid13_p1	gamma_cid13_p2	gamma_cid13_p3	gamma_cid13_p4	gamma_cid13_p5	gamma_cid14_p0
0.5	-0.1121318155823951	-0.04275951340182507	0.7107717955433761	1.23840850816881	-0.3155203741406147	-0.03728674601167018	-0.7975268425625602	1.315296233802202	1.315296233802161	0.02869243776379994	-0.1745247919812422	0.289752217379754	0.08864142075221987	-0.07752964170539375	-0.1019145548856107	-0.822454506011582	2.434019836702935	-0.02616588637583821	0.5531873570710764	-0.787846097410339	2.810472686096692	2.810472686096684	0.494479324623527	-9.105660638876172e-05	0.6459151097860387	0.2606136690479506	-0.2876140349625169	0.01554283348215587	-0.01702988909736244	-0.3272112146998321	0.06002237237618966	0.04268977846248545	0.3395676855226861	-22.98501738192175	-12.79461676136484	-0.3803417285915396	-12.74231206566899	-689.2067488413555	-67.53722460452174	-0.04241633545743796	1.15356611371673	0.9892800602896283	-0.5090226551457105	-1.746639440836058	0.09243104942012242	-0.6980588035347752	2.021222259687881	-2.184116643611233	-2.184116643611226	-0.2623377165955715	0.04757057732706874	-1.742727962554189	-0.3888092044604058	-1.583151520426714e-07	-2.055910299889511e-06	7.820101309184804e-08	-4.204287491599372e-07	-2.782556787604485e-07	-9.092668495134938e-07	-2.440440875462517e-07
0.51	-0.1128491562321961	-0.0437292803321448	0.7025237468533526	1.262658668748317	-0.3157781202793689	-0.03179078986518413	-0.8053035644665315	1.343287941058214	1.343287941058189	0.03362347159296281	-0.1745251411295191	0.2961225262959146	0.09122610388197229	-0.06588831439021682	-0.09204784947182612	-0.8269508559535884	2.415705883551904	-0.02538216034514341	0.5459877572139579	-0.7674613029705259	2.787498298314293	2.787498298314306	0.4916880089567706	3.500379141314525e-06	0.6280160722217554	0.2562328280350796	-0.2949979361093604	0.01527055270669406	-0.01772117671071309	-0.3353554840677658	0.05849336210170798	0.04213251053636756	0.3474036738061496	-24.0329742494311	-12.17807994446222	-0.6968313629363651	-12.2966033219314	-697.654748770177	-67.30338528353582	-0.04232245103973418	1.176921992620128	0.9839356709425374	-0.3893297728363844	-1.919749547269437	0.07157764639137561	-0.7335506698340848	2.052655098604256	-2.409630617433859	-2.409630617430625	-0.2936883250172443	-0.01229140953006575	-1.83315123364441	-0.4759925651622997	-7.535911873635449e-08	-1.597866554846214e-06	-5.515591616551883e-08	-4.055818225122411e-07	-2.086631018732671e-07	-8.069436762071511e-07	-1.69452649227311e-07
0.52	-0.1134485824184123	-0.04460066623052331	0.6942368569420873	1.2867164945373	-0.3160279823045177	-0.02636735773587413	-0.8128753290136107	1.371038798282025	1.371038798282025	0.0385253602988038	-0.1745250826416788	0.3023099129203763	0.09376432439850367	-0.05394674898693289	-0.08223834849736832	-0.8302227502599316	2.395552878599556	-0.02458906365456064	0.5386825536354898	-0.7468546260316358	2.762302679656711	2.762302679656746	0.4886502999579548	-9.529383169880614e-06	0.6093306514463108	0.2513211464037365	-0.3023818372562178	0.01499827193123433	-0.01841246432404896	-0.3434997534356985	0.05696435182723106	0.04157524261025503	0.3552396620896006	-25.09194457141771	-11.55470164009419	-1.020024661928343	-11.87846504896752	-706.2433127091357	-67.10294058461466	-0.04216443786649368	1.213613731338341	0.977839172424159	-0.2641315280131035	-2.114449801099481	0.09430518139775658	-0.7191795478046684	2.065598759503517	-2.628362818647736	-2.628362818647757	-0.3116163830074909	0.02605322775885902	-1.90000460478659	-0.4949773281548871	-1.732113067850356e-08	-1.528079047924958e-06	-3.537311003561291e-07	-4.434616088427107e-07	-1.755041484568517e-07	-9.851991750654839e-07	-1.15342682190469e-07
0.53	-0.1139273315050473	-0.04537431437138959	0.6859233725103159	1.310563902383804	-0.3162696021592236	-0.02101761857798958	-0.8202399802282867	1.398526884780007	1.398526884779994	0.04339616877874128	-0.1745252532756089	0.3083068304233064	0.096251209978579	-0.04177132644543571	-0.07250704249659663	-0.8322672199285921	2.373634480951882	-0.02372563832436454	0.5312680762988424	-0.7260529664937491	2.734965036693186	2.734965036693199	0.4854585042657697	-2.301939006565921e-05	0.5899489968192424	0.2459843507328731	-0.3092473836439312	0.01470861677159241	-0.01912993751205312	-0.3517375747014035	0.05575084507068594	0.04083531719446062	0.3626378930022054	-26.05065326288806	-10.8410394708363	-1.390176396394688	-11.4598492788874	-714.5811981883867	-66.72952802920429	-0.04193446862349688	1.224257189437151	0.9683192188978774	-0.1435988789052963	-2.274670980440596	0.08387192238032797	-0.7522881216444988	2.09084711286252	-2.838885137983698	-2.838885137986988	-0.331074829261528	-0.01497292345861638	-1.972879606531693	-0.5634772813625442	3.425996059264779e-08	-1.485588104301091e-06	-6.334030449441016e-07	-4.802872977735823e-07	-1.502226379761929e-07	-1.189911191590104e-06	-6.532394956185216e-08
0.54	-0.1142833762314973	-0.04605114087124985	0.6775956445433352	1.334183299007055	-0.3165022856179185	-0.0157419654524824	-0.8273959353351987	1.425731110827798	1.425731110827778	0.04823343656838252	-0.1745255433713108	0.3141068046369925	0.09868263828298367	-0.02940587694864276	-0.06287402029616529	-0.8330714573017733	2.349950633950634	-0.02280178445217677	0.5238653471602038	-0.7051154044785867	2.705530589618505	2.705530589618496	0.4819421618960877	-3.34217387538684e-05	0.5699419935975844	0.2402296912695925	-0.3161129300316645	0.01441896161194755	-0.01984741070002096	-0.359975395967107	0.05453733831414521	0.04009539177866404	0.370036123914793	-27.02389411625502	-10.11859842153461	-1.768850874433861	-11.05472320989838	-723.0999942787079	-66.38318453851643	-0.04161123557175084	1.251619122397688	0.958182412355985	-0.01608506891724111	-2.467539671814294	0.1063908897961408	-0.7168299082028576	2.092779254958824	-3.047723640879065	-3.047723640879017	-0.3765257185068921	0.02667075940043523	-2.02507432370465	-0.5785500866383501	7.869725116362083e-08	-1.473297613687101e-06	-8.921607669929851e-07	-5.159467512836221e-07	-1.336565962755202e-07	-1.423894248937001e-06	-1.983168904446315e-08
0.55	-0.1145150051153519	-0.04663220113870575	0.6692660733403805	1.357557200390467	-0.316725307103281	-0.01054070460273439	-0.8343419039902524	1.452630718255593	1.452630718255573	0.05303448061060469	-0.1745257999760796	0.319703866613656	0.1010546900721335	-0.0169038989309548	-0.05336087305236149	-0.8326343858544949	2.324539431712972	-0.02179365257872605	0.5163816898710033	-0.6840676241897755	2.674056511839083	2.674056511839074	0.4782117750780363	-2.008164218087872e-05	0.5493921654526515	0.2341177083278426	-0.3225442042452816	0.01401729354475385	-0.02062008564596103	-0.3680521809932734	0.05334024574363812	0.03930718605893953	0.3770406807461859	-27.98059965126542	-9.367224641039316	-2.164540275074807	-10.59250353995147	-731.2931907226575	-65.97349567446307	-0.04130377961355577	1.251885657505698	0.9443478220508928	0.1048379426322733	-2.621435966155083	0.09953313537914139	-0.7649572367634633	2.112382767650813	-3.247408458222224	-3.247408458222239	-0.3796517239474265	-0.01193864015618051	-2.08172070048012	-0.6366127509845277	1.209060351293374e-07	-1.459270776126006e-06	-1.13518436331799e-06	-5.474495040927457e-07	-1.207968381055339e-07	-1.675323933628405e-06	2.598644142079832e-08
0.5600000000000001	-0.114621134515825	-0.04711883654539248	0.6609471197901146	1.380668284658213	-0.3169379455100574	-0.005414445045373461	-0.8410770737720575	1.479205553183245	1.479205553183231	0.05779654947252873	-0.1745260440348796	0.3250930735807516	0.1033638039612577	-0.004305980271190143	-0.04398904814232987	-0.8309479267639558	2.297387210818792	-0.0207251687348953	0.5088650886824096	-0.6629556298285996	2.640576089589723	2.640576089589715	0.4741471258402651	-3.091254328426354e-05	0.528370991684017	0.2276421112644457	-0.3289754784589112	0.0136156254775689	-0.02139276059195547	-0.3761289660194428	0.0521431531731374	0.03851898033923173	0.3840452375775679	-28.95453933274427	-8.606445122466084	-2.569028587296447	-10.13211853163281	-739.7015765962934	-65.58769204041035	-0.04100892369847852	1.270807250813208	0.9299179456014551	0.2337924597348988	-2.815743403117729	0.1184612838721791	-0.7234186880814416	2.105622069431965	-3.448992534866606	-3.448992534866619	-0.4433782024508656	0.02183655986521878	-2.119343448445112	-0.6512729109677694	1.604406111687462e-07	-1.443160322228386e-06	-1.35932700877434e-06	-5.739642160607699e-07	-1.123846201723711e-07	-1.947689571133215e-06	7.219561582350674e-08
